<svg xmlns="http://www.w3.org/2000/svg" width="1200" height="675" viewBox="0 0 1200 675">
  <defs>
    <radialGradient id="glow" cx="50%" cy="40%" r="70%">
      <stop offset="0%" stop-color="#ff6b00" stop-opacity="0.4"/>
      <stop offset="55%" stop-color="#ff6b00" stop-opacity="0.1"/>
      <stop offset="100%" stop-color="#ff6b00" stop-opacity="0"/>
    </radialGradient>
    <linearGradient id="bg" x1="0" y1="0" x2="1" y2="1">
      <stop offset="0%" stop-color="#0c1118"/>
      <stop offset="100%" stop-color="#170f07"/>
    </linearGradient>
  </defs>
  <rect width="1200" height="675" fill="url(#bg)"/>
  <rect width="1200" height="675" fill="url(#glow)"/>
  <g stroke="#ff6b00" stroke-opacity="0.08" stroke-width="1">
    <line x1="0" y1="112" x2="1200" y2="112"/>
    <line x1="0" y1="225" x2="1200" y2="225"/>
    <line x1="0" y1="337" x2="1200" y2="337"/>
    <line x1="0" y1="450" x2="1200" y2="450"/>
    <line x1="0" y1="562" x2="1200" y2="562"/>
    <line x1="240" y1="0" x2="240" y2="675"/>
    <line x1="480" y1="0" x2="480" y2="675"/>
    <line x1="720" y1="0" x2="720" y2="675"/>
    <line x1="960" y1="0" x2="960" y2="675"/>
  </g>
  <text x="600" y="320" text-anchor="middle" font-family="Arial, Helvetica, sans-serif" font-weight="700" font-size="58" letter-spacing="6" fill="#ffffff">IEDC SUMMIT</text>
  <text x="600" y="384" text-anchor="middle" font-family="Arial, Helvetica, sans-serif" font-weight="600" font-size="20" letter-spacing="8" fill="#ff6b00">RSET IEDC &middot; IIC RSET</text>
  <g transform="translate(600 452)">
    <rect x="-130" y="-26" width="260" height="52" rx="26" fill="none" stroke="#ff6b00" stroke-opacity="0.45" stroke-width="1.5"/>
    <text x="0" y="9" text-anchor="middle" font-family="Arial, Helvetica, sans-serif" font-size="15" letter-spacing="4" fill="#ff6b00" fill-opacity="0.9">PHOTO COMING SOON</text>
  </g>
</svg>
